<svg xmlns="http://www.w3.org/2000/svg" xmlns:xlink="http://www.w3.org/1999/xlink" width="500" zoomAndPan="magnify" viewBox="0 0 375 374.999991" height="500" preserveAspectRatio="xMidYMid meet" version="1.0"><defs><clipPath id="b686b80e71"><path d="M 84.1875 103.636719 L 269.703125 103.636719 L 269.703125 289.152344 L 84.1875 289.152344 Z M 84.1875 103.636719 " clip-rule="nonzero"/></clipPath><clipPath id="b8f908371e"><path d="M 176.945312 103.636719 C 125.71875 103.636719 84.1875 145.167969 84.1875 196.394531 C 84.1875 247.625 125.71875 289.152344 176.945312 289.152344 C 228.175781 289.152344 269.703125 247.625 269.703125 196.394531 C 269.703125 145.167969 228.175781 103.636719 176.945312 103.636719 Z M 176.945312 103.636719 " clip-rule="nonzero"/></clipPath><clipPath id="32921e7933"><path d="M 89.136719 113.53125 L 264.757812 113.53125 L 264.757812 289.152344 L 89.136719 289.152344 Z M 89.136719 113.53125 " clip-rule="nonzero"/></clipPath><clipPath id="d573cf3b5a"><path d="M 176.945312 113.53125 C 128.449219 113.53125 89.136719 152.847656 89.136719 201.34375 C 89.136719 249.839844 128.449219 289.152344 176.945312 289.152344 C 225.441406 289.152344 264.757812 249.839844 264.757812 201.34375 C 264.757812 152.847656 225.441406 113.53125 176.945312 113.53125 Z M 176.945312 113.53125 " clip-rule="nonzero"/></clipPath><clipPath id="01f7174bbd"><path d="M 89.136719 113.53125 L 264.636719 113.53125 L 264.636719 289.03125 L 89.136719 289.03125 Z M 89.136719 113.53125 " clip-rule="nonzero"/></clipPath><clipPath id="7885e5e20a"><path d="M 176.945312 113.53125 C 128.449219 113.53125 89.136719 152.847656 89.136719 201.339844 C 89.136719 249.835938 128.449219 289.148438 176.945312 289.148438 C 225.4375 289.148438 264.753906 249.835938 264.753906 201.339844 C 264.753906 152.847656 225.4375 113.53125 176.945312 113.53125 Z M 176.945312 113.53125 " clip-rule="nonzero"/></clipPath><clipPath id="8f123c4f87"><path d="M 114.308594 133.757812 L 239.558594 133.757812 L 239.558594 259.007812 L 114.308594 259.007812 Z M 114.308594 133.757812 " clip-rule="nonzero"/></clipPath></defs><g clip-path="url(#b686b80e71)"><g clip-path="url(#b8f908371e)"><path fill="#00bf63" d="M 84.1875 103.636719 L 269.703125 103.636719 L 269.703125 289.152344 L 84.1875 289.152344 Z M 84.1875 103.636719 " fill-opacity="1" fill-rule="nonzero"/></g></g><g clip-path="url(#32921e7933)"><g clip-path="url(#d573cf3b5a)"><path fill="#00bf63" d="M 89.136719 113.53125 L 264.757812 113.53125 L 264.757812 289.152344 L 89.136719 289.152344 Z M 89.136719 113.53125 " fill-opacity="1" fill-rule="nonzero"/></g></g><g clip-path="url(#01f7174bbd)"><g clip-path="url(#7885e5e20a)"><path stroke-linecap="butt" transform="matrix(0.75, 0, 0, 0.75, 89.135346, 113.532665)" fill="none" stroke-linejoin="miter" d="M 117.079956 -0.00188606 C 52.418497 -0.00188606 0.00183054 52.419989 0.00183054 117.076239 C 0.00183054 181.737698 52.418497 234.154364 117.079956 234.154364 C 181.736206 234.154364 234.158081 181.737698 234.158081 117.076239 C 234.158081 52.419989 181.736206 -0.00188606 117.079956 -0.00188606 Z M 117.079956 -0.00188606 " stroke="#ffffff" stroke-width="4" stroke-opacity="1" stroke-miterlimit="4"/></g></g><g clip-path="url(#8f123c4f87)"><path fill="#ffffff" d="M 239.582031 179.429688 L 239.582031 213.359375 C 239.582031 215.707031 237.675781 217.613281 235.324219 217.613281 L 200.703125 217.613281 C 199.429688 217.613281 198.378906 216.585938 198.378906 215.3125 C 198.378906 214.25 198.308594 213.265625 198.078125 212.46875 C 197.101562 209.105469 198.515625 205.023438 198.660156 204.101562 L 198.667969 204.078125 C 198.8125 203.152344 198.988281 202.09375 197.46875 201.796875 C 196.878906 201.679688 196.324219 201.933594 195.824219 202.410156 C 195.039062 203.15625 194.371094 204.441406 193.847656 205.667969 C 192.996094 207.65625 193.117188 210.90625 192.382812 212.402344 C 191.644531 213.890625 190.195312 213.636719 187.882812 212.734375 C 185.570312 211.824219 181.328125 204.644531 178.558594 201.1875 C 175.789062 197.734375 175.070312 197.230469 174.132812 197.667969 C 173.199219 198.113281 173.925781 200.363281 176.511719 203.914062 C 180.699219 209.671875 181.53125 211.390625 180.390625 211.601562 C 179.253906 211.816406 175.9375 207.492188 173.746094 205.078125 C 171.554688 202.660156 169.632812 201.183594 168.648438 200.816406 C 167.664062 200.449219 166.960938 201.210938 167.203125 202.449219 C 167.433594 203.695312 171.652344 207.765625 173.339844 209.667969 C 175.03125 211.566406 178.992188 214.972656 177.742188 215.328125 C 176.5 215.6875 170.089844 209.199219 168.074219 207.164062 C 166.054688 205.113281 164.519531 206.25 164.875 207.78125 C 165.230469 209.300781 168.578125 212.640625 171.679688 215.394531 C 174.765625 218.140625 176.414062 219.886719 175.9375 220.3125 C 175.464844 220.734375 173.539062 219.996094 168.695312 217.972656 C 163.859375 215.945312 163.816406 217.035156 163.71875 217.328125 C 163.613281 217.617188 163.472656 218.226562 164.695312 219.328125 C 165.917969 220.429688 174.53125 224.371094 175.449219 224.875 C 175.867188 225.105469 176.679688 225.789062 177.621094 226.605469 C 178.757812 227.582031 180.089844 228.738281 181.171875 229.5 C 181.269531 229.5625 181.363281 229.625 181.46875 229.695312 C 183.109375 230.773438 186.164062 232.210938 191.351562 232.816406 C 191.804688 232.867188 192.21875 233.082031 192.527344 233.417969 L 192.539062 233.425781 C 192.570312 233.46875 192.605469 233.507812 192.644531 233.542969 C 193.03125 233.960938 193.570312 234.53125 194.132812 235.066406 C 194.179688 235.109375 194.222656 235.152344 194.269531 235.199219 C 194.65625 235.566406 195.042969 235.917969 195.398438 236.175781 C 197.15625 237.769531 198.160156 240.027344 198.160156 242.398438 L 198.160156 254.777344 C 198.160156 257.125 196.257812 259.03125 193.90625 259.03125 L 159.980469 259.03125 C 157.632812 259.03125 155.726562 257.125 155.726562 254.777344 L 155.726562 221.867188 C 155.726562 219.515625 153.820312 217.613281 151.472656 217.613281 L 118.5625 217.613281 C 116.210938 217.613281 114.308594 215.707031 114.308594 213.359375 L 114.308594 179.429688 C 114.308594 177.082031 116.210938 175.175781 118.5625 175.175781 L 153.1875 175.175781 C 154.460938 175.175781 155.507812 176.203125 155.507812 177.476562 C 155.507812 178.539062 155.578125 179.523438 155.808594 180.320312 C 156.789062 183.683594 155.375 187.765625 155.230469 188.6875 L 155.21875 188.710938 C 155.074219 189.636719 154.902344 190.695312 156.417969 190.992188 C 157.007812 191.109375 157.566406 190.855469 158.066406 190.378906 C 158.851562 189.632812 159.519531 188.347656 160.042969 187.121094 C 160.894531 185.132812 160.773438 181.882812 161.503906 180.386719 C 162.242188 178.898438 163.691406 179.15625 166.007812 180.054688 C 168.320312 180.964844 172.5625 188.144531 175.332031 191.601562 C 178.101562 195.054688 178.820312 195.558594 179.753906 195.121094 C 180.6875 194.675781 179.964844 192.425781 177.378906 188.875 C 173.1875 183.117188 172.355469 181.398438 173.5 181.1875 C 174.632812 180.972656 177.949219 185.296875 180.140625 187.710938 C 182.332031 190.128906 184.253906 191.605469 185.238281 191.972656 C 186.226562 192.339844 186.925781 191.578125 186.683594 190.339844 C 186.453125 189.09375 182.234375 185.023438 180.550781 183.121094 C 178.855469 181.222656 174.894531 177.816406 176.144531 177.460938 C 177.386719 177.101562 183.796875 183.589844 185.8125 185.625 C 187.835938 187.675781 189.367188 186.539062 189.015625 185.007812 C 188.660156 183.488281 185.3125 180.148438 182.207031 177.394531 C 179.125 174.648438 177.472656 172.90625 177.949219 172.480469 C 178.421875 172.054688 180.347656 172.792969 185.195312 174.816406 C 190.027344 176.84375 190.074219 175.753906 190.167969 175.460938 C 190.273438 175.171875 190.417969 174.5625 189.195312 173.460938 C 187.972656 172.359375 179.359375 168.417969 178.4375 167.914062 C 178.019531 167.683594 177.210938 167 176.265625 166.183594 C 175.132812 165.207031 173.800781 164.050781 172.714844 163.289062 C 172.621094 163.226562 172.527344 163.164062 172.421875 163.09375 C 170.777344 162.015625 167.726562 160.578125 162.539062 159.972656 C 162.085938 159.921875 161.667969 159.707031 161.359375 159.371094 L 161.347656 159.363281 C 161.316406 159.320312 161.285156 159.28125 161.246094 159.246094 C 160.859375 158.832031 160.320312 158.257812 159.757812 157.722656 C 159.710938 157.679688 159.664062 157.636719 159.617188 157.589844 C 159.234375 157.222656 158.84375 156.871094 158.492188 156.613281 C 156.730469 155.023438 155.726562 152.761719 155.726562 150.390625 L 155.726562 138.011719 C 155.726562 135.664062 157.632812 133.757812 159.980469 133.757812 L 193.90625 133.757812 C 196.257812 133.757812 198.160156 135.664062 198.160156 138.011719 L 198.160156 170.921875 C 198.160156 173.273438 200.066406 175.175781 202.417969 175.175781 L 235.324219 175.175781 C 237.675781 175.175781 239.582031 177.082031 239.582031 179.429688 " fill-opacity="1" fill-rule="nonzero"/></g></svg>