<svg xmlns="http://www.w3.org/2000/svg" xmlns:xlink="http://www.w3.org/1999/xlink" width="500" zoomAndPan="magnify" viewBox="0 0 375 374.999991" height="500" preserveAspectRatio="xMidYMid meet" version="1.0"><defs><g/><clipPath id="e0130bd615"><path d="M 50.054688 144.597656 L 133.398438 144.597656 L 133.398438 227.941406 L 50.054688 227.941406 Z M 50.054688 144.597656 " clip-rule="nonzero"/></clipPath><clipPath id="f371e1d94a"><path d="M 91.726562 144.597656 C 68.714844 144.597656 50.054688 163.253906 50.054688 186.269531 C 50.054688 209.285156 68.714844 227.941406 91.726562 227.941406 C 114.742188 227.941406 133.398438 209.285156 133.398438 186.269531 C 133.398438 163.253906 114.742188 144.597656 91.726562 144.597656 Z M 91.726562 144.597656 " clip-rule="nonzero"/></clipPath><clipPath id="401828ff99"><path d="M 52.277344 149.042969 L 131.175781 149.042969 L 131.175781 227.941406 L 52.277344 227.941406 Z M 52.277344 149.042969 " clip-rule="nonzero"/></clipPath><clipPath id="5889a4250c"><path d="M 91.726562 149.042969 C 69.941406 149.042969 52.277344 166.703125 52.277344 188.492188 C 52.277344 210.28125 69.941406 227.941406 91.726562 227.941406 C 113.515625 227.941406 131.175781 210.28125 131.175781 188.492188 C 131.175781 166.703125 113.515625 149.042969 91.726562 149.042969 Z M 91.726562 149.042969 " clip-rule="nonzero"/></clipPath><clipPath id="9ba908304d"><path d="M 52.277344 149.042969 L 131.027344 149.042969 L 131.027344 227.792969 L 52.277344 227.792969 Z M 52.277344 149.042969 " clip-rule="nonzero"/></clipPath><clipPath id="608bba8c8d"><path d="M 91.722656 149.042969 C 69.9375 149.042969 52.277344 166.703125 52.277344 188.488281 C 52.277344 210.273438 69.9375 227.933594 91.722656 227.933594 C 113.507812 227.933594 131.167969 210.273438 131.167969 188.488281 C 131.167969 166.703125 113.507812 149.042969 91.722656 149.042969 Z M 91.722656 149.042969 " clip-rule="nonzero"/></clipPath><clipPath id="02e87c0254"><path d="M 63.585938 158.128906 L 119.835938 158.128906 L 119.835938 214.378906 L 63.585938 214.378906 Z M 63.585938 158.128906 " clip-rule="nonzero"/></clipPath></defs><g fill="#00bf63" fill-opacity="1"><g transform="translate(135.997217, 198.551735)"><g><path d="M 16.46875 -14.125 L 10.625 0 L 5.515625 0 L -0.28125 -14.125 L 4.796875 -14.125 L 8.171875 -5.5 L 11.75 -14.125 Z M 16.46875 -14.125 "/></g></g></g><g fill="#00bf63" fill-opacity="1"><g transform="translate(150.292575, 198.551735)"><g><path d="M 8.671875 0.234375 C 7.160156 0.234375 5.796875 -0.078125 4.578125 -0.703125 C 3.367188 -1.328125 2.421875 -2.191406 1.734375 -3.296875 C 1.046875 -4.410156 0.703125 -5.671875 0.703125 -7.078125 C 0.703125 -8.472656 1.046875 -9.722656 1.734375 -10.828125 C 2.421875 -11.941406 3.363281 -12.804688 4.5625 -13.421875 C 5.769531 -14.046875 7.140625 -14.359375 8.671875 -14.359375 C 10.203125 -14.359375 11.570312 -14.046875 12.78125 -13.421875 C 14 -12.804688 14.945312 -11.945312 15.625 -10.84375 C 16.300781 -9.738281 16.640625 -8.484375 16.640625 -7.078125 C 16.640625 -5.671875 16.300781 -4.410156 15.625 -3.296875 C 14.945312 -2.191406 14 -1.328125 12.78125 -0.703125 C 11.570312 -0.078125 10.203125 0.234375 8.671875 0.234375 Z M 8.671875 -3.703125 C 9.535156 -3.703125 10.242188 -4 10.796875 -4.59375 C 11.359375 -5.195312 11.640625 -6.023438 11.640625 -7.078125 C 11.640625 -8.117188 11.359375 -8.9375 10.796875 -9.53125 C 10.242188 -10.125 9.535156 -10.421875 8.671875 -10.421875 C 7.804688 -10.421875 7.09375 -10.125 6.53125 -9.53125 C 5.976562 -8.9375 5.703125 -8.117188 5.703125 -7.078125 C 5.703125 -6.023438 5.976562 -5.195312 6.53125 -4.59375 C 7.09375 -4 7.804688 -3.703125 8.671875 -3.703125 Z M 8.671875 -3.703125 "/></g></g></g><g fill="#00bf63" fill-opacity="1"><g transform="translate(165.78574, 198.551735)"><g><path d="M 1.59375 -19.328125 L 6.53125 -19.328125 L 6.53125 0 L 1.59375 0 Z M 1.59375 -19.328125 "/></g></g></g><g fill="#00bf63" fill-opacity="1"><g transform="translate(172.087114, 198.551735)"><g><path d="M 16.4375 -14.125 L 16.4375 0 L 11.71875 0 L 11.71875 -1.515625 C 11.195312 -0.941406 10.570312 -0.503906 9.84375 -0.203125 C 9.113281 0.0859375 8.34375 0.234375 7.53125 0.234375 C 5.707031 0.234375 4.25 -0.300781 3.15625 -1.375 C 2.070312 -2.457031 1.53125 -4.070312 1.53125 -6.21875 L 1.53125 -14.125 L 6.484375 -14.125 L 6.484375 -7.03125 C 6.484375 -5.96875 6.679688 -5.191406 7.078125 -4.703125 C 7.484375 -4.222656 8.066406 -3.984375 8.828125 -3.984375 C 9.609375 -3.984375 10.242188 -4.253906 10.734375 -4.796875 C 11.234375 -5.347656 11.484375 -6.1875 11.484375 -7.3125 L 11.484375 -14.125 Z M 16.4375 -14.125 "/></g></g></g><g fill="#00bf63" fill-opacity="1"><g transform="translate(188.257288, 198.551735)"><g><path d="M 10.78125 -14.359375 C 12.539062 -14.359375 13.953125 -13.832031 15.015625 -12.78125 C 16.085938 -11.738281 16.625 -10.171875 16.625 -8.078125 L 16.625 0 L 11.671875 0 L 11.671875 -7.265625 C 11.671875 -9.191406 10.894531 -10.15625 9.34375 -10.15625 C 8.5 -10.15625 7.816406 -9.875 7.296875 -9.3125 C 6.785156 -8.757812 6.53125 -7.929688 6.53125 -6.828125 L 6.53125 0 L 1.59375 0 L 1.59375 -14.125 L 6.296875 -14.125 L 6.296875 -12.578125 C 6.859375 -13.148438 7.519531 -13.585938 8.28125 -13.890625 C 9.039062 -14.203125 9.875 -14.359375 10.78125 -14.359375 Z M 10.78125 -14.359375 "/></g></g></g><g fill="#00bf63" fill-opacity="1"><g transform="translate(204.531615, 198.551735)"><g><path d="M 11.328125 -0.578125 C 10.910156 -0.316406 10.398438 -0.117188 9.796875 0.015625 C 9.203125 0.160156 8.566406 0.234375 7.890625 0.234375 C 6.046875 0.234375 4.628906 -0.210938 3.640625 -1.109375 C 2.648438 -2.015625 2.15625 -3.363281 2.15625 -5.15625 L 2.15625 -9.890625 L 0.109375 -9.890625 L 0.109375 -13.59375 L 2.15625 -13.59375 L 2.15625 -17.265625 L 7.109375 -17.265625 L 7.109375 -13.59375 L 10.34375 -13.59375 L 10.34375 -9.890625 L 7.109375 -9.890625 L 7.109375 -5.203125 C 7.109375 -4.703125 7.242188 -4.304688 7.515625 -4.015625 C 7.785156 -3.734375 8.144531 -3.59375 8.59375 -3.59375 C 9.164062 -3.59375 9.671875 -3.738281 10.109375 -4.03125 Z M 11.328125 -0.578125 "/></g></g></g><g fill="#00bf63" fill-opacity="1"><g transform="translate(214.322224, 198.551735)"><g><path d="M 16.015625 -7.03125 C 16.015625 -7 15.988281 -6.59375 15.9375 -5.8125 L 5.671875 -5.8125 C 5.878906 -5.082031 6.28125 -4.519531 6.875 -4.125 C 7.476562 -3.738281 8.234375 -3.546875 9.140625 -3.546875 C 9.816406 -3.546875 10.398438 -3.640625 10.890625 -3.828125 C 11.390625 -4.015625 11.890625 -4.328125 12.390625 -4.765625 L 15 -2.0625 C 13.632812 -0.53125 11.628906 0.234375 8.984375 0.234375 C 7.335938 0.234375 5.890625 -0.078125 4.640625 -0.703125 C 3.390625 -1.328125 2.421875 -2.191406 1.734375 -3.296875 C 1.046875 -4.410156 0.703125 -5.671875 0.703125 -7.078125 C 0.703125 -8.472656 1.035156 -9.71875 1.703125 -10.8125 C 2.367188 -11.914062 3.289062 -12.78125 4.46875 -13.40625 C 5.65625 -14.039062 6.988281 -14.359375 8.46875 -14.359375 C 9.875 -14.359375 11.148438 -14.066406 12.296875 -13.484375 C 13.441406 -12.898438 14.347656 -12.054688 15.015625 -10.953125 C 15.679688 -9.847656 16.015625 -8.539062 16.015625 -7.03125 Z M 8.484375 -10.828125 C 7.722656 -10.828125 7.085938 -10.609375 6.578125 -10.171875 C 6.066406 -9.742188 5.738281 -9.15625 5.59375 -8.40625 L 11.375 -8.40625 C 11.238281 -9.15625 10.914062 -9.742188 10.40625 -10.171875 C 9.894531 -10.609375 9.253906 -10.828125 8.484375 -10.828125 Z M 8.484375 -10.828125 "/></g></g></g><g fill="#00bf63" fill-opacity="1"><g transform="translate(229.19045, 198.551735)"><g><path d="M 16.015625 -7.03125 C 16.015625 -7 15.988281 -6.59375 15.9375 -5.8125 L 5.671875 -5.8125 C 5.878906 -5.082031 6.28125 -4.519531 6.875 -4.125 C 7.476562 -3.738281 8.234375 -3.546875 9.140625 -3.546875 C 9.816406 -3.546875 10.398438 -3.640625 10.890625 -3.828125 C 11.390625 -4.015625 11.890625 -4.328125 12.390625 -4.765625 L 15 -2.0625 C 13.632812 -0.53125 11.628906 0.234375 8.984375 0.234375 C 7.335938 0.234375 5.890625 -0.078125 4.640625 -0.703125 C 3.390625 -1.328125 2.421875 -2.191406 1.734375 -3.296875 C 1.046875 -4.410156 0.703125 -5.671875 0.703125 -7.078125 C 0.703125 -8.472656 1.035156 -9.71875 1.703125 -10.8125 C 2.367188 -11.914062 3.289062 -12.78125 4.46875 -13.40625 C 5.65625 -14.039062 6.988281 -14.359375 8.46875 -14.359375 C 9.875 -14.359375 11.148438 -14.066406 12.296875 -13.484375 C 13.441406 -12.898438 14.347656 -12.054688 15.015625 -10.953125 C 15.679688 -9.847656 16.015625 -8.539062 16.015625 -7.03125 Z M 8.484375 -10.828125 C 7.722656 -10.828125 7.085938 -10.609375 6.578125 -10.171875 C 6.066406 -9.742188 5.738281 -9.15625 5.59375 -8.40625 L 11.375 -8.40625 C 11.238281 -9.15625 10.914062 -9.742188 10.40625 -10.171875 C 9.894531 -10.609375 9.253906 -10.828125 8.484375 -10.828125 Z M 8.484375 -10.828125 "/></g></g></g><g fill="#00bf63" fill-opacity="1"><g transform="translate(244.058677, 198.551735)"><g><path d="M 6.296875 -12.421875 C 6.804688 -13.066406 7.460938 -13.550781 8.265625 -13.875 C 9.078125 -14.195312 10.003906 -14.359375 11.046875 -14.359375 L 11.046875 -9.890625 C 10.585938 -9.941406 10.210938 -9.96875 9.921875 -9.96875 C 8.859375 -9.96875 8.023438 -9.679688 7.421875 -9.109375 C 6.828125 -8.535156 6.53125 -7.660156 6.53125 -6.484375 L 6.53125 0 L 1.59375 0 L 1.59375 -14.125 L 6.296875 -14.125 Z M 6.296875 -12.421875 "/></g></g></g><g fill="#00bf63" fill-opacity="1"><g transform="translate(253.745127, 198.551735)"><g><path d="M 1.59375 -14.125 L 6.53125 -14.125 L 6.53125 0 L 1.59375 0 Z M 4.0625 -15.6875 C 3.15625 -15.6875 2.425781 -15.9375 1.875 -16.4375 C 1.320312 -16.9375 1.046875 -17.5625 1.046875 -18.3125 C 1.046875 -19.0625 1.320312 -19.6875 1.875 -20.1875 C 2.425781 -20.6875 3.15625 -20.9375 4.0625 -20.9375 C 4.96875 -20.9375 5.695312 -20.695312 6.25 -20.21875 C 6.800781 -19.75 7.078125 -19.140625 7.078125 -18.390625 C 7.078125 -17.609375 6.800781 -16.960938 6.25 -16.453125 C 5.695312 -15.941406 4.96875 -15.6875 4.0625 -15.6875 Z M 4.0625 -15.6875 "/></g></g></g><g fill="#00bf63" fill-opacity="1"><g transform="translate(260.046495, 198.551735)"><g><path d="M 10.78125 -14.359375 C 12.539062 -14.359375 13.953125 -13.832031 15.015625 -12.78125 C 16.085938 -11.738281 16.625 -10.171875 16.625 -8.078125 L 16.625 0 L 11.671875 0 L 11.671875 -7.265625 C 11.671875 -9.191406 10.894531 -10.15625 9.34375 -10.15625 C 8.5 -10.15625 7.816406 -9.875 7.296875 -9.3125 C 6.785156 -8.757812 6.53125 -7.929688 6.53125 -6.828125 L 6.53125 0 L 1.59375 0 L 1.59375 -14.125 L 6.296875 -14.125 L 6.296875 -12.578125 C 6.859375 -13.148438 7.519531 -13.585938 8.28125 -13.890625 C 9.039062 -14.203125 9.875 -14.359375 10.78125 -14.359375 Z M 10.78125 -14.359375 "/></g></g></g><g fill="#00bf63" fill-opacity="1"><g transform="translate(276.320817, 198.551735)"><g><path d="M 16.78125 -14.125 L 16.78125 -2.578125 C 16.78125 0.046875 16.066406 2.007812 14.640625 3.3125 C 13.210938 4.625 11.160156 5.28125 8.484375 5.28125 C 7.097656 5.28125 5.796875 5.125 4.578125 4.8125 C 3.367188 4.5 2.335938 4.039062 1.484375 3.4375 L 3.28125 -0.03125 C 3.851562 0.4375 4.578125 0.804688 5.453125 1.078125 C 6.328125 1.347656 7.191406 1.484375 8.046875 1.484375 C 9.347656 1.484375 10.300781 1.195312 10.90625 0.625 C 11.519531 0.0507812 11.828125 -0.796875 11.828125 -1.921875 L 11.828125 -2.390625 C 10.867188 -1.285156 9.46875 -0.734375 7.625 -0.734375 C 6.375 -0.734375 5.21875 -1.015625 4.15625 -1.578125 C 3.101562 -2.140625 2.265625 -2.9375 1.640625 -3.96875 C 1.015625 -5 0.703125 -6.191406 0.703125 -7.546875 C 0.703125 -8.890625 1.015625 -10.078125 1.640625 -11.109375 C 2.265625 -12.140625 3.101562 -12.9375 4.15625 -13.5 C 5.21875 -14.070312 6.375 -14.359375 7.625 -14.359375 C 9.644531 -14.359375 11.125 -13.703125 12.0625 -12.390625 L 12.0625 -14.125 Z M 8.796875 -4.65625 C 9.679688 -4.65625 10.414062 -4.925781 11 -5.46875 C 11.582031 -6.007812 11.875 -6.703125 11.875 -7.546875 C 11.875 -8.398438 11.585938 -9.09375 11.015625 -9.625 C 10.441406 -10.15625 9.703125 -10.421875 8.796875 -10.421875 C 7.898438 -10.421875 7.160156 -10.15625 6.578125 -9.625 C 5.992188 -9.09375 5.703125 -8.398438 5.703125 -7.546875 C 5.703125 -6.703125 5.992188 -6.007812 6.578125 -5.46875 C 7.171875 -4.925781 7.910156 -4.65625 8.796875 -4.65625 Z M 8.796875 -4.65625 "/></g></g></g><g fill="#00bf63" fill-opacity="1"><g transform="translate(135.997217, 221.801733)"><g><path d="M 10.78125 -14.359375 C 12.539062 -14.359375 13.953125 -13.832031 15.015625 -12.78125 C 16.085938 -11.738281 16.625 -10.171875 16.625 -8.078125 L 16.625 0 L 11.671875 0 L 11.671875 -7.265625 C 11.671875 -9.191406 10.894531 -10.15625 9.34375 -10.15625 C 8.5 -10.15625 7.816406 -9.875 7.296875 -9.3125 C 6.785156 -8.757812 6.53125 -7.929688 6.53125 -6.828125 L 6.53125 0 L 1.59375 0 L 1.59375 -19.328125 L 6.53125 -19.328125 L 6.53125 -12.8125 C 7.070312 -13.320312 7.707031 -13.707031 8.4375 -13.96875 C 9.164062 -14.226562 9.945312 -14.359375 10.78125 -14.359375 Z M 10.78125 -14.359375 "/></g></g></g><g fill="#00bf63" fill-opacity="1"><g transform="translate(152.271544, 221.801733)"><g><path d="M 16.4375 -14.125 L 16.4375 0 L 11.71875 0 L 11.71875 -1.515625 C 11.195312 -0.941406 10.570312 -0.503906 9.84375 -0.203125 C 9.113281 0.0859375 8.34375 0.234375 7.53125 0.234375 C 5.707031 0.234375 4.25 -0.300781 3.15625 -1.375 C 2.070312 -2.457031 1.53125 -4.070312 1.53125 -6.21875 L 1.53125 -14.125 L 6.484375 -14.125 L 6.484375 -7.03125 C 6.484375 -5.96875 6.679688 -5.191406 7.078125 -4.703125 C 7.484375 -4.222656 8.066406 -3.984375 8.828125 -3.984375 C 9.609375 -3.984375 10.242188 -4.253906 10.734375 -4.796875 C 11.234375 -5.347656 11.484375 -6.1875 11.484375 -7.3125 L 11.484375 -14.125 Z M 16.4375 -14.125 "/></g></g></g><g fill="#00bf63" fill-opacity="1"><g transform="translate(168.441719, 221.801733)"><g><path d="M 10.46875 -14.359375 C 11.75 -14.359375 12.914062 -14.0625 13.96875 -13.46875 C 15.019531 -12.875 15.851562 -12.023438 16.46875 -10.921875 C 17.09375 -9.816406 17.40625 -8.535156 17.40625 -7.078125 C 17.40625 -5.617188 17.09375 -4.332031 16.46875 -3.21875 C 15.851562 -2.113281 15.019531 -1.257812 13.96875 -0.65625 C 12.914062 -0.0625 11.75 0.234375 10.46875 0.234375 C 8.613281 0.234375 7.222656 -0.3125 6.296875 -1.40625 L 6.296875 0 L 1.59375 0 L 1.59375 -19.328125 L 6.53125 -19.328125 L 6.53125 -12.890625 C 7.488281 -13.867188 8.800781 -14.359375 10.46875 -14.359375 Z M 9.421875 -3.703125 C 10.296875 -3.703125 11.007812 -4 11.5625 -4.59375 C 12.113281 -5.195312 12.390625 -6.023438 12.390625 -7.078125 C 12.390625 -8.117188 12.113281 -8.9375 11.5625 -9.53125 C 11.007812 -10.125 10.296875 -10.421875 9.421875 -10.421875 C 8.554688 -10.421875 7.84375 -10.125 7.28125 -9.53125 C 6.726562 -8.9375 6.453125 -8.117188 6.453125 -7.078125 C 6.453125 -6.023438 6.726562 -5.195312 7.28125 -4.59375 C 7.84375 -4 8.554688 -3.703125 9.421875 -3.703125 Z M 9.421875 -3.703125 "/></g></g></g><g fill="#000000" fill-opacity="1"><g transform="translate(134.008853, 174.700184)"><g><path d="M 15.0625 0.4375 C 12.488281 0.4375 10.160156 -0.117188 8.078125 -1.234375 C 6.003906 -2.359375 4.375 -3.910156 3.1875 -5.890625 C 2 -7.867188 1.40625 -10.109375 1.40625 -12.609375 C 1.40625 -15.109375 2 -17.347656 3.1875 -19.328125 C 4.375 -21.304688 6.003906 -22.851562 8.078125 -23.96875 C 10.160156 -25.09375 12.5 -25.65625 15.09375 -25.65625 C 17.28125 -25.65625 19.253906 -25.269531 21.015625 -24.5 C 22.785156 -23.726562 24.269531 -22.625 25.46875 -21.1875 L 21.734375 -17.734375 C 20.023438 -19.703125 17.910156 -20.6875 15.390625 -20.6875 C 13.828125 -20.6875 12.429688 -20.34375 11.203125 -19.65625 C 9.984375 -18.96875 9.03125 -18.007812 8.34375 -16.78125 C 7.65625 -15.5625 7.3125 -14.171875 7.3125 -12.609375 C 7.3125 -11.046875 7.65625 -9.648438 8.34375 -8.421875 C 9.03125 -7.203125 9.984375 -6.25 11.203125 -5.5625 C 12.429688 -4.882812 13.828125 -4.546875 15.390625 -4.546875 C 17.910156 -4.546875 20.023438 -5.539062 21.734375 -7.53125 L 25.46875 -4.078125 C 24.269531 -2.609375 22.78125 -1.488281 21 -0.71875 C 19.226562 0.0507812 17.25 0.4375 15.0625 0.4375 Z M 15.0625 0.4375 "/></g></g></g><g fill="#000000" fill-opacity="1"><g transform="translate(156.890677, 174.700184)"><g><path d="M 10.40625 -19.671875 C 13.414062 -19.671875 15.722656 -18.957031 17.328125 -17.53125 C 18.941406 -16.101562 19.75 -13.945312 19.75 -11.0625 L 19.75 0 L 14.484375 0 L 14.484375 -2.421875 C 13.429688 -0.617188 11.460938 0.28125 8.578125 0.28125 C 7.085938 0.28125 5.796875 0.03125 4.703125 -0.46875 C 3.609375 -0.96875 2.769531 -1.660156 2.1875 -2.546875 C 1.613281 -3.441406 1.328125 -4.453125 1.328125 -5.578125 C 1.328125 -7.378906 2.003906 -8.796875 3.359375 -9.828125 C 4.722656 -10.867188 6.820312 -11.390625 9.65625 -11.390625 L 14.125 -11.390625 C 14.125 -12.609375 13.75 -13.546875 13 -14.203125 C 12.257812 -14.867188 11.144531 -15.203125 9.65625 -15.203125 C 8.625 -15.203125 7.609375 -15.039062 6.609375 -14.71875 C 5.609375 -14.394531 4.765625 -13.957031 4.078125 -13.40625 L 2.046875 -17.328125 C 3.109375 -18.078125 4.378906 -18.65625 5.859375 -19.0625 C 7.335938 -19.46875 8.851562 -19.671875 10.40625 -19.671875 Z M 9.984375 -3.5 C 10.941406 -3.5 11.789062 -3.71875 12.53125 -4.15625 C 13.28125 -4.601562 13.8125 -5.257812 14.125 -6.125 L 14.125 -8.109375 L 10.265625 -8.109375 C 7.960938 -8.109375 6.8125 -7.351562 6.8125 -5.84375 C 6.8125 -5.113281 7.09375 -4.539062 7.65625 -4.125 C 8.21875 -3.707031 8.992188 -3.5 9.984375 -3.5 Z M 9.984375 -3.5 "/></g></g></g><g fill="#000000" fill-opacity="1"><g transform="translate(175.592432, 174.700184)"><g><path d="M 14.375 -19.671875 C 16.78125 -19.671875 18.71875 -18.945312 20.1875 -17.5 C 21.664062 -16.0625 22.40625 -13.925781 22.40625 -11.09375 L 22.40625 0 L 16.796875 0 L 16.796875 -10.234375 C 16.796875 -11.765625 16.457031 -12.910156 15.78125 -13.671875 C 15.101562 -14.429688 14.128906 -14.8125 12.859375 -14.8125 C 11.441406 -14.8125 10.3125 -14.367188 9.46875 -13.484375 C 8.632812 -12.609375 8.21875 -11.304688 8.21875 -9.578125 L 8.21875 0 L 2.59375 0 L 2.59375 -19.390625 L 7.96875 -19.390625 L 7.96875 -17.109375 C 8.707031 -17.929688 9.628906 -18.5625 10.734375 -19 C 11.835938 -19.445312 13.050781 -19.671875 14.375 -19.671875 Z M 14.375 -19.671875 "/></g></g></g><g fill="#000000" fill-opacity="1"><g transform="translate(196.960784, 174.700184)"><g><path d="M 10.40625 -19.671875 C 13.414062 -19.671875 15.722656 -18.957031 17.328125 -17.53125 C 18.941406 -16.101562 19.75 -13.945312 19.75 -11.0625 L 19.75 0 L 14.484375 0 L 14.484375 -2.421875 C 13.429688 -0.617188 11.460938 0.28125 8.578125 0.28125 C 7.085938 0.28125 5.796875 0.03125 4.703125 -0.46875 C 3.609375 -0.96875 2.769531 -1.660156 2.1875 -2.546875 C 1.613281 -3.441406 1.328125 -4.453125 1.328125 -5.578125 C 1.328125 -7.378906 2.003906 -8.796875 3.359375 -9.828125 C 4.722656 -10.867188 6.820312 -11.390625 9.65625 -11.390625 L 14.125 -11.390625 C 14.125 -12.609375 13.75 -13.546875 13 -14.203125 C 12.257812 -14.867188 11.144531 -15.203125 9.65625 -15.203125 C 8.625 -15.203125 7.609375 -15.039062 6.609375 -14.71875 C 5.609375 -14.394531 4.765625 -13.957031 4.078125 -13.40625 L 2.046875 -17.328125 C 3.109375 -18.078125 4.378906 -18.65625 5.859375 -19.0625 C 7.335938 -19.46875 8.851562 -19.671875 10.40625 -19.671875 Z M 9.984375 -3.5 C 10.941406 -3.5 11.789062 -3.71875 12.53125 -4.15625 C 13.28125 -4.601562 13.8125 -5.257812 14.125 -6.125 L 14.125 -8.109375 L 10.265625 -8.109375 C 7.960938 -8.109375 6.8125 -7.351562 6.8125 -5.84375 C 6.8125 -5.113281 7.09375 -4.539062 7.65625 -4.125 C 8.21875 -3.707031 8.992188 -3.5 9.984375 -3.5 Z M 9.984375 -3.5 "/></g></g></g><g fill="#000000" fill-opacity="1"><g transform="translate(215.66254, 174.700184)"><g><path d="M 22.34375 -26.734375 L 22.34375 0 L 16.96875 0 L 16.96875 -2.234375 C 15.570312 -0.554688 13.554688 0.28125 10.921875 0.28125 C 9.085938 0.28125 7.429688 -0.125 5.953125 -0.9375 C 4.484375 -1.75 3.328125 -2.910156 2.484375 -4.421875 C 1.640625 -5.941406 1.21875 -7.695312 1.21875 -9.6875 C 1.21875 -11.6875 1.640625 -13.441406 2.484375 -14.953125 C 3.328125 -16.460938 4.484375 -17.625 5.953125 -18.4375 C 7.429688 -19.257812 9.085938 -19.671875 10.921875 -19.671875 C 13.390625 -19.671875 15.320312 -18.890625 16.71875 -17.328125 L 16.71875 -26.734375 Z M 11.890625 -4.328125 C 13.304688 -4.328125 14.484375 -4.8125 15.421875 -5.78125 C 16.359375 -6.757812 16.828125 -8.0625 16.828125 -9.6875 C 16.828125 -11.320312 16.359375 -12.625 15.421875 -13.59375 C 14.484375 -14.570312 13.304688 -15.0625 11.890625 -15.0625 C 10.453125 -15.0625 9.265625 -14.570312 8.328125 -13.59375 C 7.390625 -12.625 6.921875 -11.320312 6.921875 -9.6875 C 6.921875 -8.0625 7.390625 -6.757812 8.328125 -5.78125 C 9.265625 -4.8125 10.453125 -4.328125 11.890625 -4.328125 Z M 11.890625 -4.328125 "/></g></g></g><g fill="#000000" fill-opacity="1"><g transform="translate(237.066922, 174.700184)"><g><path d="M 10.40625 -19.671875 C 13.414062 -19.671875 15.722656 -18.957031 17.328125 -17.53125 C 18.941406 -16.101562 19.75 -13.945312 19.75 -11.0625 L 19.75 0 L 14.484375 0 L 14.484375 -2.421875 C 13.429688 -0.617188 11.460938 0.28125 8.578125 0.28125 C 7.085938 0.28125 5.796875 0.03125 4.703125 -0.46875 C 3.609375 -0.96875 2.769531 -1.660156 2.1875 -2.546875 C 1.613281 -3.441406 1.328125 -4.453125 1.328125 -5.578125 C 1.328125 -7.378906 2.003906 -8.796875 3.359375 -9.828125 C 4.722656 -10.867188 6.820312 -11.390625 9.65625 -11.390625 L 14.125 -11.390625 C 14.125 -12.609375 13.75 -13.546875 13 -14.203125 C 12.257812 -14.867188 11.144531 -15.203125 9.65625 -15.203125 C 8.625 -15.203125 7.609375 -15.039062 6.609375 -14.71875 C 5.609375 -14.394531 4.765625 -13.957031 4.078125 -13.40625 L 2.046875 -17.328125 C 3.109375 -18.078125 4.378906 -18.65625 5.859375 -19.0625 C 7.335938 -19.46875 8.851562 -19.671875 10.40625 -19.671875 Z M 9.984375 -3.5 C 10.941406 -3.5 11.789062 -3.71875 12.53125 -4.15625 C 13.28125 -4.601562 13.8125 -5.257812 14.125 -6.125 L 14.125 -8.109375 L 10.265625 -8.109375 C 7.960938 -8.109375 6.8125 -7.351562 6.8125 -5.84375 C 6.8125 -5.113281 7.09375 -4.539062 7.65625 -4.125 C 8.21875 -3.707031 8.992188 -3.5 9.984375 -3.5 Z M 9.984375 -3.5 "/></g></g></g><g clip-path="url(#e0130bd615)"><g clip-path="url(#f371e1d94a)"><path fill="#00bf63" d="M 50.054688 144.597656 L 133.398438 144.597656 L 133.398438 227.941406 L 50.054688 227.941406 Z M 50.054688 144.597656 " fill-opacity="1" fill-rule="nonzero"/></g></g><g clip-path="url(#401828ff99)"><g clip-path="url(#5889a4250c)"><path fill="#00bf63" d="M 52.277344 149.042969 L 131.175781 149.042969 L 131.175781 227.941406 L 52.277344 227.941406 Z M 52.277344 149.042969 " fill-opacity="1" fill-rule="nonzero"/></g></g><g clip-path="url(#9ba908304d)"><g clip-path="url(#608bba8c8d)"><path stroke-linecap="butt" transform="matrix(0.75, 0, 0, 0.75, 52.278241, 149.042657)" fill="none" stroke-linejoin="miter" d="M 52.592557 0.000416183 C 23.54568 0.000416183 -0.00119642 23.547293 -0.00119642 52.59417 C -0.00119642 81.641047 23.54568 105.187923 52.592557 105.187923 C 81.639434 105.187923 105.18631 81.641047 105.18631 52.59417 C 105.18631 23.547293 81.639434 0.000416183 52.592557 0.000416183 Z M 52.592557 0.000416183 " stroke="#ffffff" stroke-width="4" stroke-opacity="1" stroke-miterlimit="4"/></g></g><g clip-path="url(#02e87c0254)"><path fill="#ffffff" d="M 119.859375 178.644531 L 119.859375 193.886719 C 119.859375 194.941406 119.003906 195.796875 117.949219 195.796875 L 102.394531 195.796875 C 101.824219 195.796875 101.351562 195.335938 101.351562 194.765625 C 101.351562 194.285156 101.320312 193.84375 101.21875 193.488281 C 100.777344 191.976562 101.414062 190.140625 101.476562 189.726562 L 101.480469 189.71875 C 101.546875 189.300781 101.625 188.828125 100.945312 188.691406 C 100.679688 188.640625 100.429688 188.753906 100.203125 188.96875 C 99.851562 189.304688 99.550781 189.878906 99.316406 190.429688 C 98.933594 191.324219 98.988281 192.785156 98.660156 193.457031 C 98.328125 194.125 97.675781 194.011719 96.636719 193.605469 C 95.597656 193.195312 93.691406 189.972656 92.449219 188.417969 C 91.203125 186.867188 90.882812 186.640625 90.460938 186.839844 C 90.042969 187.039062 90.367188 188.046875 91.527344 189.644531 C 93.410156 192.230469 93.785156 193 93.273438 193.097656 C 92.761719 193.191406 91.273438 191.25 90.289062 190.167969 C 89.304688 189.078125 88.441406 188.417969 87.996094 188.253906 C 87.554688 188.085938 87.238281 188.429688 87.347656 188.984375 C 87.453125 189.546875 89.347656 191.375 90.105469 192.226562 C 90.863281 193.082031 92.644531 194.613281 92.082031 194.769531 C 91.523438 194.933594 88.644531 192.015625 87.738281 191.101562 C 86.832031 190.183594 86.140625 190.691406 86.300781 191.382812 C 86.460938 192.0625 87.964844 193.5625 89.359375 194.800781 C 90.746094 196.035156 91.484375 196.816406 91.273438 197.007812 C 91.058594 197.199219 90.195312 196.867188 88.019531 195.957031 C 85.847656 195.050781 85.828125 195.535156 85.785156 195.667969 C 85.734375 195.796875 85.671875 196.070312 86.222656 196.566406 C 86.769531 197.0625 90.640625 198.832031 91.054688 199.058594 C 91.242188 199.164062 91.605469 199.46875 92.027344 199.835938 C 92.539062 200.277344 93.136719 200.792969 93.625 201.136719 C 93.667969 201.164062 93.707031 201.191406 93.753906 201.222656 C 94.492188 201.710938 95.863281 202.355469 98.195312 202.628906 C 98.398438 202.648438 98.585938 202.746094 98.722656 202.898438 L 98.730469 202.898438 C 98.742188 202.917969 98.757812 202.9375 98.777344 202.953125 C 98.949219 203.140625 99.191406 203.398438 99.445312 203.636719 C 99.464844 203.65625 99.484375 203.675781 99.507812 203.695312 C 99.679688 203.863281 99.855469 204.019531 100.011719 204.136719 C 100.804688 204.851562 101.253906 205.867188 101.253906 206.929688 L 101.253906 212.492188 C 101.253906 213.546875 100.398438 214.402344 99.34375 214.402344 L 84.105469 214.402344 C 83.046875 214.402344 82.191406 213.546875 82.191406 212.492188 L 82.191406 197.707031 C 82.191406 196.652344 81.335938 195.796875 80.28125 195.796875 L 65.5 195.796875 C 64.441406 195.796875 63.585938 194.941406 63.585938 193.886719 L 63.585938 178.644531 C 63.585938 177.589844 64.441406 176.734375 65.5 176.734375 L 81.050781 176.734375 C 81.625 176.734375 82.09375 177.195312 82.09375 177.769531 C 82.09375 178.246094 82.125 178.6875 82.230469 179.042969 C 82.667969 180.554688 82.035156 182.390625 81.96875 182.804688 L 81.964844 182.8125 C 81.902344 183.230469 81.820312 183.707031 82.503906 183.839844 C 82.769531 183.890625 83.019531 183.777344 83.242188 183.5625 C 83.59375 183.230469 83.894531 182.652344 84.132812 182.101562 C 84.511719 181.207031 84.460938 179.746094 84.789062 179.074219 C 85.121094 178.40625 85.769531 178.519531 86.8125 178.925781 C 87.847656 179.335938 89.753906 182.558594 91 184.113281 C 92.242188 185.664062 92.566406 185.890625 92.984375 185.691406 C 93.40625 185.492188 93.082031 184.484375 91.917969 182.886719 C 90.035156 180.300781 89.664062 179.53125 90.175781 179.433594 C 90.6875 179.339844 92.175781 181.28125 93.160156 182.363281 C 94.144531 183.453125 95.007812 184.113281 95.449219 184.277344 C 95.894531 184.445312 96.207031 184.101562 96.097656 183.546875 C 95.996094 182.984375 94.101562 181.15625 93.34375 180.304688 C 92.582031 179.449219 90.804688 177.921875 91.363281 177.761719 C 91.921875 177.601562 94.800781 180.515625 95.707031 181.429688 C 96.617188 182.347656 97.304688 181.839844 97.144531 181.152344 C 96.988281 180.46875 95.480469 178.96875 94.089844 177.730469 C 92.703125 176.496094 91.960938 175.714844 92.175781 175.523438 C 92.386719 175.332031 93.253906 175.664062 95.429688 176.574219 C 97.601562 177.484375 97.621094 176.996094 97.664062 176.863281 C 97.710938 176.734375 97.777344 176.460938 97.226562 175.964844 C 96.675781 175.46875 92.808594 173.699219 92.394531 173.472656 C 92.207031 173.367188 91.84375 173.0625 91.417969 172.695312 C 90.910156 172.257812 90.3125 171.738281 89.824219 171.394531 C 89.78125 171.367188 89.738281 171.339844 89.691406 171.308594 C 88.953125 170.820312 87.582031 170.175781 85.253906 169.902344 C 85.050781 169.882812 84.863281 169.785156 84.722656 169.636719 L 84.71875 169.632812 C 84.703125 169.613281 84.6875 169.59375 84.671875 169.578125 C 84.496094 169.390625 84.257812 169.136719 84.003906 168.894531 C 83.980469 168.875 83.960938 168.855469 83.941406 168.835938 C 83.769531 168.671875 83.59375 168.511719 83.433594 168.394531 C 82.644531 167.679688 82.191406 166.664062 82.191406 165.601562 L 82.191406 160.039062 C 82.191406 158.984375 83.046875 158.128906 84.105469 158.128906 L 99.34375 158.128906 C 100.398438 158.128906 101.253906 158.984375 101.253906 160.039062 L 101.253906 174.824219 C 101.253906 175.878906 102.109375 176.734375 103.167969 176.734375 L 117.949219 176.734375 C 119.003906 176.734375 119.859375 177.589844 119.859375 178.644531 " fill-opacity="1" fill-rule="nonzero"/></g></svg>